<svg xmlns="http://www.w3.org/2000/svg" width="40" height="40" fill="none">
    <path fill="#48B774" d="M27.281 26.416c-.72.939-1.718 1.65-2.994 2.133-1.276.483-2.725.724-4.348.724-1.668 0-3.144-.378-4.43-1.134-1.284-.757-2.278-1.837-2.98-3.24-.692-1.413-1.052-3.059-1.08-4.936v-1.559c0-3.008.72-5.354 2.16-7.04 1.44-1.696 3.45-2.544 6.03-2.544 2.215 0 3.974.547 5.277 1.64 1.303 1.095 2.087 2.671 2.352 4.731h-3.391c-.383-2.397-1.773-3.595-4.17-3.595-1.55 0-2.73.56-3.541 1.681-.802 1.112-1.217 2.748-1.244 4.909v1.53c0 2.152.451 3.824 1.353 5.018.912 1.185 2.174 1.778 3.788 1.778 1.768 0 3.026-.401 3.773-1.203v-3.897h-4.102v-2.625h7.547v7.629Z"/>
    <circle cx="20" cy="20" r="17.5" stroke="#F9A779" stroke-width="5"/>
</svg>